<?xml version="1.0"?>
<svg xmlns="http://www.w3.org/2000/svg" viewBox="0 0 88 97" width="88" height="97">
<path d="M44 5 L80 18 V47 C80 71 62 87 44 92 C26 87 8 71 8 47 V18 Z" fill="#0A0A0A"></path>
<path d="M44 5 L80 18 V47 C80 71 62 87 44 92 C26 87 8 71 8 47 V18 Z" fill="none" stroke="#CE1141" stroke-width="2.4"></path>
<path d="M44 12 L73 22 V46 C73 66 58 79 44 84 C30 79 15 66 15 46 V22 Z" fill="none" stroke="rgba(255,255,255,0.14)" stroke-width="1.6"></path><ellipse cx="29" cy="54" rx="2.6" ry="5" fill="#CE1141" transform="rotate(40 29 54)"></ellipse><ellipse cx="29" cy="47" rx="2.6" ry="5" fill="#CE1141" transform="rotate(34 29 47)"></ellipse><ellipse cx="29" cy="40" rx="2.6" ry="5" fill="#CE1141" transform="rotate(28 29 40)"></ellipse><ellipse cx="29" cy="33" rx="2.6" ry="5" fill="#CE1141" transform="rotate(22 29 33)"></ellipse><path d="M27 66 Q24 44 35 30" fill="none" stroke="#CE1141" stroke-width="2"></path><ellipse cx="59" cy="54" rx="2.6" ry="5" fill="#CE1141" transform="rotate(-40 59 54)"></ellipse><ellipse cx="59" cy="47" rx="2.6" ry="5" fill="#CE1141" transform="rotate(-34 59 47)"></ellipse><ellipse cx="59" cy="40" rx="2.6" ry="5" fill="#CE1141" transform="rotate(-28 59 40)"></ellipse><ellipse cx="59" cy="33" rx="2.6" ry="5" fill="#CE1141" transform="rotate(-22 59 33)"></ellipse><path d="M61 66 Q64 44 53 30" fill="none" stroke="#CE1141" stroke-width="2"></path><polygon points="44.00,32.00 46.82,40.12 55.41,40.29 48.57,45.48 51.05,53.71 44.00,48.80 36.95,53.71 39.43,45.48 32.59,40.29 41.18,40.12" fill="#FFFFFF"></polygon>
</svg>