<?xml version="1.0"?>
<svg xmlns="http://www.w3.org/2000/svg" viewBox="0 0 88 97" width="88" height="97">
<path d="M44 5 L80 18 V47 C80 71 62 87 44 92 C26 87 8 71 8 47 V18 Z" fill="#EFEDE8"></path>
<path d="M44 5 L80 18 V47 C80 71 62 87 44 92 C26 87 8 71 8 47 V18 Z" fill="none" stroke="#CE1141" stroke-width="2.4"></path>
<path d="M44 12 L73 22 V46 C73 66 58 79 44 84 C30 79 15 66 15 46 V22 Z" fill="none" stroke="rgba(0,0,0,0.12)" stroke-width="1.6"></path><ellipse cx="29" cy="58" rx="2.6" ry="5" fill="#CE1141" transform="rotate(40 29 58)"></ellipse><ellipse cx="29" cy="51" rx="2.6" ry="5" fill="#CE1141" transform="rotate(34 29 51)"></ellipse><ellipse cx="29" cy="44" rx="2.6" ry="5" fill="#CE1141" transform="rotate(28 29 44)"></ellipse><ellipse cx="29" cy="37" rx="2.6" ry="5" fill="#CE1141" transform="rotate(22 29 37)"></ellipse><path d="M27 70 Q24 48 35 34" fill="none" stroke="#CE1141" stroke-width="2"></path><ellipse cx="59" cy="58" rx="2.6" ry="5" fill="#CE1141" transform="rotate(-40 59 58)"></ellipse><ellipse cx="59" cy="51" rx="2.6" ry="5" fill="#CE1141" transform="rotate(-34 59 51)"></ellipse><ellipse cx="59" cy="44" rx="2.6" ry="5" fill="#CE1141" transform="rotate(-28 59 44)"></ellipse><ellipse cx="59" cy="37" rx="2.6" ry="5" fill="#CE1141" transform="rotate(-22 59 37)"></ellipse><path d="M61 70 Q64 48 53 34" fill="none" stroke="#CE1141" stroke-width="2"></path><polygon points="28.00,36.00 29.88,41.41 35.61,41.53 31.04,44.99 32.70,50.47 28.00,47.20 23.30,50.47 24.96,44.99 20.39,41.53 26.12,41.41" fill="#CE1141"></polygon><polygon points="44.00,29.00 46.59,36.44 54.46,36.60 48.18,41.36 50.47,48.90 44.00,44.40 37.53,48.90 39.82,41.36 33.54,36.60 41.41,36.44" fill="#0A0A0A"></polygon><polygon points="60.00,36.00 61.88,41.41 67.61,41.53 63.04,44.99 64.70,50.47 60.00,47.20 55.30,50.47 56.96,44.99 52.39,41.53 58.12,41.41" fill="#CE1141"></polygon>
</svg>